<?xml version="1.0" standalone="no"?><!DOCTYPE svg PUBLIC "-//W3C//DTD SVG 1.1//EN" "http://www.w3.org/Graphics/SVG/1.1/DTD/svg11.dtd"><svg class="icon" width="200px" height="200.00px" viewBox="0 0 1024 1024" version="1.1" xmlns="http://www.w3.org/2000/svg"><path d="M704 256l192 0c17.7 0 32-14.3 32-32s-14.3-32-32-32L704 192c-17.7 0-32 14.3-32 32S686.3 256 704 256zM576 64l0 256L75 320c-41.4 0-75 33.6-75 75l0 426c0 41.4 33.6 75 75 75l277 0 0 64L224 960c-17.7 0-32 14.3-32 32s14.3 32 32 32l320 0c17.7 0 32-14.3 32-32s-14.3-32-32-32L416 960l0-64 160 0 0 96 0 32 448 0L1024 64 576 64zM64 821 64 395c0-6.1 4.9-11 11-11l501 0 117 0c0.8 0 1.5 0.1 2.2 0.2 1.4 0.3 2.8 0.9 3.9 1.7 0.3 0.2 0.6 0.4 0.8 0.6 0.5 0.4 1 0.9 1.5 1.5 0.2 0.3 0.4 0.6 0.6 0.8 0.8 1.2 1.4 2.5 1.7 3.9 0.1 0.7 0.2 1.5 0.2 2.2l0 426c0 0.8-0.1 1.5-0.2 2.2-0.3 1.4-0.9 2.8-1.7 3.9-0.2 0.3-0.4 0.6-0.6 0.8-0.4 0.5-0.9 1-1.5 1.5-0.3 0.2-0.6 0.4-0.8 0.6-1.2 0.8-2.5 1.4-3.9 1.7-0.7 0.1-1.5 0.2-2.2 0.2L576 831.8 75 831.8C68.9 832 64 827.1 64 821zM960 960 640 960l0-64 53 0c41.4 0 75-33.6 75-75L768 395c0-41.4-33.6-75-75-75l-53 0L640 128l320 0L960 960z" /></svg>