<?xml version="1.0" standalone="no"?><!DOCTYPE svg PUBLIC "-//W3C//DTD SVG 1.1//EN" "http://www.w3.org/Graphics/SVG/1.1/DTD/svg11.dtd"><svg t="1732177978431" class="icon" viewBox="0 0 1024 1024" version="1.1" xmlns="http://www.w3.org/2000/svg" p-id="2146" xmlns:xlink="http://www.w3.org/1999/xlink" width="200" height="200"><path d="M548.84 434.418H372.256c-13.939 0-25.22 11.314-25.22 25.25 0 13.937 11.281 25.217 25.22 25.217H548.84c13.937 0 25.219-11.28 25.219-25.218 0-13.935-11.281-25.249-25.218-25.249zM548.84 535.35H372.256c-13.939 0-25.22 11.28-25.22 25.22 0 13.937 11.281 25.218 25.22 25.218H548.84c13.937 0 25.219-11.28 25.219-25.219 0-13.938-11.281-25.218-25.218-25.218z" p-id="2147"></path><path d="M460.564 383.983c-13.937 0-25.248 11.312-25.248 25.25V661.47c0 13.938 11.312 25.22 25.248 25.22 13.906 0 25.217-11.281 25.217-25.22V409.232c0-13.937-11.311-25.249-25.217-25.249z" p-id="2148"></path><path d="M371.739 283.002a25.14 25.14 0 0 0-17.827 7.39c-9.843 9.844-9.843 25.842 0 35.655l89.182 89.184a25.09 25.09 0 0 0 17.828 7.406 25.091 25.091 0 0 0 17.827-7.406c9.874-9.812 9.874-25.812 0-35.655l-89.183-89.184a25.14 25.14 0 0 0-17.827-7.39z" p-id="2149"></path><path d="M549.356 283.752a25.15 25.15 0 0 0-17.827 7.39l-89.184 89.183c-9.843 9.843-9.843 25.845 0 35.655a25.09 25.09 0 0 0 17.826 7.406 25.094 25.094 0 0 0 17.83-7.406l89.214-89.184c9.843-9.843 9.843-25.812 0-35.655a25.25 25.25 0 0 0-17.859-7.39zM793.096 984.3h-0.125c-4.952 0-11.406-1.56-15.843-3.765a31.953 31.953 0 0 1-9.796-7.563c-0.017 0-5.422-5.813-13.263-11.656-9.376-6.952-18.002-10.797-24.282-10.797-3.579 0-11.469 1.376-23.953 10.578-6.718 4.922-12.06 10.157-13.405 11.593-1.923 2.063-4.437 4.235-6.829 5.719-9.703 6.064-24.296 6.782-34.31 1.188l-47.435-26.53c-14.31-7.999-20.25-25.547-13.75-40.608 1.61-3.72 4-11.452 4-17.501 0-24.638-19.266-44.95-43.875-46.23-14.936-0.785-27.342-11.8-29.872-26.548-1.953-11.376-4.234-27.515-4.234-40.967 0-13.452 2.281-29.592 4.202-40.747 2.532-14.75 14.982-25.997 29.937-26.763 24.576-1.268 43.841-21.578 43.841-46.234 0-2.281-0.406-8.594-4.219-18.094-6.014-15.014 0.078-32.295 14.25-40.076l50.122-27.531c9.985-5.452 24.78-4.623 34.452 1.393a33.11 33.11 0 0 1 6.47 5.342s5.436 5.594 13.121 11.062c12.44 8.89 20.173 10.22 23.675 10.22 3.482 0 11.2-1.3 23.638-10.016 7.312-5.187 12.58-10.452 13.469-11.343a32.18 32.18 0 0 1 3.56-3.11c9.89-7.405 26.03-8.858 36.814-2.874l48.433 26.935c14.42 8.015 20.376 25.671 13.781 40.78-1.607 3.689-4.014 11.343-4.014 17.312 0 24.656 19.28 44.965 43.888 46.234 14.97 0.766 27.404 11.81 29.905 26.59 1.939 11.39 4.203 27.5 4.203 40.92 0 14.484-2.642 31.921-4.218 41.015-2.547 14.718-14.94 25.716-29.86 26.5-24.624 1.28-43.918 21.592-43.918 46.23 0 4.78 1.575 11.501 4.217 17.97 6.157 15.015 0.095 32.296-14.092 40.154L808.597 980.3a32.047 32.047 0 0 1-15.501 4z m-63.31-97.776c20.516 0 41.513 7.89 62.452 23.435 1.64 1.22 3.217 2.438 4.716 3.642l7.826-4.329c-0.7-4.593-1.124-9.405-1.124-14.31 0-49.326 32.435-91.372 77.591-105.355 0.265-3.187 0.408-6.033 0.408-8.39 0-2.36-0.144-5.186-0.408-8.39-45.156-13.952-77.59-55.998-77.59-105.355 0-4.97 0.45-9.828 1.155-14.39l-7.796-4.328a202.155 202.155 0 0 1-4.545 3.328c-41.452 29.03-80.544 28.748-121.356-0.422-1.656-1.17-3.25-2.361-4.749-3.515l-9.375 5.14c0.737 4.875 1.11 9.623 1.11 14.186 0 49.357-32.436 91.403-77.576 105.37-0.265 3.19-0.407 6.016-0.407 8.376 0 2.358 0.143 5.203 0.407 8.39 45.14 13.983 77.576 56.029 77.576 105.354 0 5.017-0.452 9.891-1.157 14.484l6.39 3.577a184.326 184.326 0 0 1 4.596-3.5c20.701-15.249 41.53-22.998 61.857-22.998z" p-id="2150"></path><path d="M442.002 933.772H210.67c-52.842 0-95.841-41.186-95.841-91.808V131.431c0-50.61 43-91.777 95.84-91.777h499.793c52.84 0 95.837 41.168 95.837 91.777v360.14c0 17.672-14.327 32-31.996 32-17.674 0-32-14.328-32-32V131.433c0-15.313-14.28-27.78-31.843-27.78H210.67c-17.562 0-31.843 12.468-31.843 27.78v710.533c0 15.341 14.282 27.811 31.843 27.811h231.333c17.67 0 32 14.326 32 32 0 17.669-14.33 31.996-32 31.996z" p-id="2151"></path></svg>