<?xml version="1.0" standalone="no"?><!DOCTYPE svg PUBLIC "-//W3C//DTD SVG 1.1//EN" "http://www.w3.org/Graphics/SVG/1.1/DTD/svg11.dtd"><svg t="1731567008761" class="icon" viewBox="0 0 1024 1024" version="1.1" xmlns="http://www.w3.org/2000/svg" p-id="1094" xmlns:xlink="http://www.w3.org/1999/xlink" width="200" height="200"><path d="M572.369455 330.752a30.906182 30.906182 0 0 0-19.083637 8.936727l-17.826909 17.780364c-10.146909 9.309091-21.131636 13.963636-33.047273 13.963636-11.822545 0-22.900364-4.654545-33.047272-13.963636l103.005091-26.717091z m0 0a186.181818 186.181818 0 0 1 18.618181-1.303273c4.654545 0 9.309091 0.837818 13.963637 2.513455 4.654545 1.768727 9.122909 7.261091 13.405091 16.570182l-45.986909-17.780364z m219.694545 387.165091l-0.279273 0.279273-45.707636 54.272-47.010909 46.964363-8.890182 8.936728h-0.046545a289.745455 289.745455 0 0 1-13.73091 13.218909h-0.046545a15.732364 15.732364 0 0 1-10.845091 4.561454h-1.908364l-1.396363 1.396364a41.937455 41.937455 0 0 1-12.055273 8.610909c-4.980364 2.327273-10.053818 5.585455-15.220364 9.914182l-55.528727 27.694545c-9.169455 4.189091-16.104727 6.516364-20.945454 7.214546h-0.093091a82.850909 82.850909 0 0 1-13.870546 1.256727h-47.104c-62.976 0-117.341091-27.136-163.281454-82.245818l-0.186182-0.232728-241.989818-250.507636c-27.322182-28.951273-40.727273-60.648727-40.727273-95.418182 0-34.629818 13.405091-65.954909 40.680727-94.021818l0.046546-0.093091 185.809454-195.584c27.322182-22.341818 55.808-35.234909 85.224728-38.912 27.648-3.444364 54.644364 2.653091 81.128727 18.478546L392.192 215.505455l-0.046545 0.046545c-28.858182 29.696-43.333818 64.791273-43.333819 105.006545 0 40.215273 14.429091 75.310545 43.287273 104.86691 25.320727 28.718545 56.413091 44.404364 92.904727 46.592 34.909091 2.141091 66.839273-6.050909 95.697455-24.669091l236.171636 245.76-24.808727 24.762181z m-319.581091-363.892364l-0.372364-0.279272c-12.660364-9.448727-18.525091-20.48-18.52509-33.140364 0-12.660364 5.911273-23.738182 18.52509-33.186909l0.372364-0.279273 0.279273-0.325818 94.208-103.005091c13.218909-13.172364 26.810182-22.295273 40.913454-27.461818a129.489455 129.489455 0 0 1 47.941819-7.354182c17.640727 0.465455 33.745455 4.142545 48.407272 10.984727 14.894545 7.074909 28.997818 15.127273 42.263273 24.203637l185.576727 195.490909c27.322182 28.113455 40.727273 59.438545 40.727273 94.068363 0 34.769455-13.405091 66.513455-40.727273 95.418182l-0.186182 0.232727-42.542545 50.734546L622.312727 345.832727c-4.282182-9.029818-9.309091-15.825455-15.639272-18.199272h-0.093091a45.707636 45.707636 0 0 0-15.546182-2.792728c-4.933818 0-11.264 0.465455-19.083637 1.303273h-0.046545a35.514182 35.514182 0 0 0-21.876364 10.24l-17.687272 17.687273c-9.448727 8.610909-19.316364 12.706909-29.882182 12.706909-10.472727 0-20.48-4.096-29.928727-12.753455z" fill="#fff" p-id="1095"></path></svg>