<?xml version="1.0" standalone="no"?><!DOCTYPE svg PUBLIC "-//W3C//DTD SVG 1.1//EN" "http://www.w3.org/Graphics/SVG/1.1/DTD/svg11.dtd"><svg t="1731567027167" class="icon" viewBox="0 0 1024 1024" version="1.1" xmlns="http://www.w3.org/2000/svg" p-id="1392" xmlns:xlink="http://www.w3.org/1999/xlink" width="200" height="200"><path d="M930.536727 579.490909l-356.584727 310.039273a126.603636 126.603636 0 0 1-79.406545 27.880727 126.603636 126.603636 0 0 1-78.848-27.461818l-356.538182-309.620364a49.896727 49.896727 0 0 1-12.613818-33.047272c0-23.133091 15.732364-42.402909 37.096727-48.407273 0 0 5.12-1.954909 12.613818-1.954909h105.053091v-323.025455c0-46.452364 35.234909-80.802909 81.92-80.802909h422.632727c46.685091 0 81.92 34.350545 81.92 80.802909v323.025455h103.051637l0.977454-0.093091 1.024 0.093091h1.163636l0.093091 0.139636a50.455273 50.455273 0 0 1 48.453819 50.269091c0 12.288-4.654545 23.458909-12.008728 32.209455z m-321.954909-138.891636c18.664727 0 29.649455-14.382545 29.649455-32.954182 0-18.618182-10.984727-31.697455-29.649455-31.697455H536.669091l74.286545-74.100363a33.745455 33.745455 0 0 0 0-47.941818 34.164364 34.164364 0 0 0-48.128 0l-68.887272 68.561454L425.425455 254.231273a34.164364 34.164364 0 0 0-48.128 0 33.745455 33.745455 0 0 0 0 47.895272l74.193454 73.821091H380.509091c-18.664727 0-29.649455 13.125818-29.649455 31.650909 0 18.618182 10.984727 33.000727 29.649455 33.000728H453.818182v40.401454H380.509091c-18.664727 0-29.649455 12.055273-29.649455 30.626909 0 18.618182 10.984727 34.024727 29.649455 34.024728H453.818182v48.500363c0 23.226182 17.361455 40.401455 40.727273 40.401455 23.319273 0 40.727273-17.221818 40.727272-40.401455v-48.500363h75.403637c18.664727 0 27.554909-12.381091 27.554909-30.952728 0-24.203636-12.986182-33.698909-31.650909-33.698909H535.272727v-40.401454h73.309091z" fill="#fff" p-id="1393"></path></svg>