<?xml version="1.0" standalone="no"?><!DOCTYPE svg PUBLIC "-//W3C//DTD SVG 1.1//EN" "http://www.w3.org/Graphics/SVG/1.1/DTD/svg11.dtd"><svg t="1731567032982" class="icon" viewBox="0 0 1024 1024" version="1.1" xmlns="http://www.w3.org/2000/svg" p-id="1543" xmlns:xlink="http://www.w3.org/1999/xlink" width="200" height="200"><path d="M911.52 175.616C911.52 133.024 877.984 96 835.2 96H140.384C97.504 96 64 131.2 64 175.616v88.864h847.52v-88.864M743.872 444.064c65.216 0 122.944 24.064 169.504 66.624v-129.6H64v331.424c0 42.56 33.536 77.76 76.384 77.76H499.84c-7.456-25.92-13.056-53.696-13.056-81.472 1.888-146.24 115.52-264.736 257.056-264.736m197.44 179.584c-11.168-25.92-26.048-49.984-46.56-70.368-18.624-20.352-42.816-35.168-68.896-48.128a209.28 209.28 0 0 0-81.984-16.64c-29.792 0-57.728 5.536-83.84 16.64-26.048 11.104-48.384 27.776-68.896 48.128-18.624 20.384-35.392 42.56-46.56 70.368-11.2 25.92-16.768 55.52-16.768 85.152 0 31.488 5.6 59.232 16.768 85.152 11.2 25.92 26.08 49.984 46.56 70.368 18.624 20.352 42.848 35.168 68.928 46.272s54.016 16.64 83.84 16.64c29.76 0 55.872-5.536 81.92-16.64 26.08-11.104 48.448-27.776 68.928-46.272 18.624-20.384 35.392-42.592 46.592-70.368 11.168-25.92 16.736-55.52 16.736-85.152 0-29.632-5.568-59.232-16.736-85.152m-70.784 194.368c-13.056-37.024-48.448-64.8-89.44-64.8v98.144c0 12.96-11.168 24.064-24.192 24.064-7.456 0-14.912-3.712-20.48-11.104L604.16 727.296a22.72 22.72 0 0 1-9.344-18.496c0-7.392 1.888-12.96 7.456-16.64l137.856-142.592a21.216 21.216 0 0 1 14.912-5.536c13.024 0 24.192 11.104 24.192 24.064v74.048c59.616 0 108.032 49.984 108.032 112.96 1.888 22.208-5.568 44.416-16.736 62.912" fill="#fff" p-id="1544"></path></svg>