<?xml version="1.0" standalone="no"?><!DOCTYPE svg PUBLIC "-//W3C//DTD SVG 1.1//EN" "http://www.w3.org/Graphics/SVG/1.1/DTD/svg11.dtd"><svg t="1732177963463" class="icon" viewBox="0 0 1024 1024" version="1.1" xmlns="http://www.w3.org/2000/svg" p-id="1851" xmlns:xlink="http://www.w3.org/1999/xlink" width="200" height="200"><path d="M792.5248 1024H180.224C109.1072 1024 51.2 964.096 51.2 890.4704V133.5296C51.2 59.904 109.1072 0 180.2752 0H792.576C863.6928 0 921.6 59.904 921.6 133.5296V272.896c0 24.6272-19.2512 44.544-43.008 44.544-23.8592 0-43.1104-19.9168-43.1104-44.544V133.5296c0-24.5248-19.2512-44.4928-43.008-44.4928H180.3264c-23.7056 0-43.008 19.968-43.008 44.4928v756.9408c0 24.5248 19.3536 44.4928 43.008 44.4928H792.576c23.7056 0 43.008-19.968 43.008-44.4928v-188.3136c0-24.576 19.3024-44.4416 43.1104-44.4416 23.7056 0 42.9568 19.8656 42.9568 44.4416v188.3136C921.6 964.096 863.6928 1024 792.5248 1024z m-284.9792-445.0304h112.4352c29.7472 0 44.6464 15.36 44.6464 46.08 0 30.208-14.848 45.2608-44.6464 45.2608H507.5456v95.4368c0 21.3504-2.9184 35.6352-8.7552 42.752-5.8368 7.168-18.6368 10.7008-38.2976 10.7008-16.9984 0-29.184-3.584-36.6592-10.7008-7.424-7.168-11.1616-21.4016-11.1616-42.752v-95.4368H301.824c-29.7472 0-44.6464-15.104-44.6464-45.2608 0-30.72 14.336-46.08 43.0592-46.08H412.672v-41.9328H301.824c-29.7472 0-44.6464-15.104-44.6464-45.2608 0-30.72 14.336-46.08 43.0592-46.08h62.976a82238.0544 82238.0544 0 0 0-97.28-163.6864c-8.4992-14.2336-11.52-26.88-9.1648-37.8368a46.4384 46.4384 0 0 1 19.5584-27.9552c12.2368-8.7552 23.552-12.3392 33.8944-10.7008s20.3264 10.7008 29.9008 27.136L461.312 441.6c19.6608-34.56 39.3216-68.9664 58.9824-103.2192 19.6608-34.304 39.3728-68.7104 59.0336-103.2704a98.304 98.304 0 0 1 16.3328-21.76 29.8496 29.8496 0 0 1 15.5648-8.2432 27.2896 27.2896 0 0 1 15.9232 2.4576c5.3248 2.4576 10.9056 5.632 16.7424 9.472 13.312 8.7552 20.48 17.92 21.504 27.5456 1.0752 9.6256-2.6112 22.0672-11.1104 37.4272l-95.744 163.7376h61.44c29.7472 0 44.6464 15.36 44.6464 46.08 0 30.1056-14.848 45.2096-44.6464 45.2096H507.5456v41.984z m305.4592-193.3824l-19.456 19.456h191.8976a25.6 25.6 0 1 1 0 51.2h-253.6448a25.6 25.6 0 0 1-18.1248-43.7248l63.1296-63.1296a25.6 25.6 0 0 1 36.1984 36.1984z m91.136 180.5312l19.456-19.456h-191.8464a25.6 25.6 0 0 1 0-51.2h253.6448a25.6 25.6 0 0 1 18.1248 43.7248l-63.1296 63.1296a25.6 25.6 0 0 1-36.1984-36.1984z" fill="#000000" p-id="1852"></path></svg>