<?xml version="1.0" standalone="no"?><!DOCTYPE svg PUBLIC "-//W3C//DTD SVG 1.1//EN" "http://www.w3.org/Graphics/SVG/1.1/DTD/svg11.dtd"><svg class="icon" width="200px" height="200.00px" viewBox="0 0 1024 1024" version="1.1" xmlns="http://www.w3.org/2000/svg"><path d="M819.6 303.2v88H204.4v-88h615.2m40-40H164.4v168h695.2v-168zM698.1 431.1l6.7 24.6H316.7l6.4-24.6h375m30.4-40H292.1L265 495.7h492.2l-28.7-104.6zM213.6 780.8c-1.7 0-3.5-0.2-5.2-0.7-10.7-2.9-17-13.9-14.1-24.5l87.9-325.2c2.9-10.7 13.9-17 24.5-14.1 10.7 2.9 17 13.9 14.1 24.5L232.9 766c-2.4 8.9-10.5 14.8-19.3 14.8zM808.7 780.8c-8.8 0-16.9-5.9-19.3-14.8l-88-325.2c-2.9-10.7 3.4-21.6 14.1-24.5 10.7-2.9 21.6 3.4 24.5 14.1l88 325.2c2.9 10.7-3.4 21.6-14.1 24.5-1.7 0.5-3.5 0.7-5.2 0.7z" /></svg>