<?xml version="1.0" standalone="no"?><!DOCTYPE svg PUBLIC "-//W3C//DTD SVG 1.1//EN" "http://www.w3.org/Graphics/SVG/1.1/DTD/svg11.dtd"><svg t="1732177971770" class="icon" viewBox="0 0 1024 1024" version="1.1" xmlns="http://www.w3.org/2000/svg" p-id="1998" xmlns:xlink="http://www.w3.org/1999/xlink" width="200" height="200"><path d="M574 1023.2H208.9c-79.8 0-144.7-64.9-144.7-144.7v-733c0-79.8 64.9-144.7 144.7-144.7h606.2c79.8 0 144.7 64.9 144.7 144.7v325.9c0 20.2-16.4 36.6-36.6 36.6s-36.6-16.4-36.6-36.6V145.5c0-39.4-32.1-71.5-71.5-71.5H208.9c-39.4 0-71.5 32.1-71.5 71.5v733c0 39.4 32.1 71.5 71.5 71.5H574c20.2 0 36.6 16.4 36.6 36.6s-16.4 36.6-36.6 36.6z" p-id="1999"></path><path d="M493.9 319.3H386.8c-20.2 0-36.6-16.4-36.6-36.6s16.4-36.6 36.6-36.6h107.1c20.2 0 36.6 16.4 36.6 36.6s-16.4 36.6-36.6 36.6zM641.3 526.7H386.8c-20.2 0-36.6-16.4-36.6-36.6s16.4-36.6 36.6-36.6h254.5c20.2 0 36.6 16.4 36.6 36.6s-16.4 36.6-36.6 36.6zM274.4 526.7h-26.3c-20.2 0-36.6-16.4-36.6-36.6s16.4-36.6 36.6-36.6h26.3c20.2 0 36.6 16.4 36.6 36.6s-16.4 36.6-36.6 36.6zM274.4 319.3h-26.3c-20.2 0-36.6-16.4-36.6-36.6s16.4-36.6 36.6-36.6h26.3c20.2 0 36.6 16.4 36.6 36.6s-16.4 36.6-36.6 36.6zM939.5 842.2h-121.7v-60.8h121.6v-46.7h-104.3l93.8-149.5h-63.7l-39.3 67.9c-20 35.1-32.2 58.4-36.7 70h-1.3c-10.4-22.1-35.8-68.3-76-137.9h-68l92.9 149.6H629.3v46.7h126v60.7h-126V893h126v93.6h62.6v-93.6h121.6V842.2z" p-id="2000"></path></svg>