<?xml version="1.0" standalone="no"?><!DOCTYPE svg PUBLIC "-//W3C//DTD SVG 1.1//EN" "http://www.w3.org/Graphics/SVG/1.1/DTD/svg11.dtd"><svg t="1732177952972" class="icon" viewBox="0 0 1024 1024" version="1.1" xmlns="http://www.w3.org/2000/svg" p-id="1702" xmlns:xlink="http://www.w3.org/1999/xlink" width="200" height="200"><path d="M857.169 32H166.83a91.685 91.685 0 0 0-91.685 91.685v776.63A91.685 91.685 0 0 0 166.831 992H857.17a91.685 91.685 0 0 0 91.685-91.685v-776.63A91.685 91.685 0 0 0 857.169 32z m16.18 868.315a16.18 16.18 0 0 1-16.18 16.18H166.83a16.18 16.18 0 0 1-16.18-16.18V150.652a16.18 16.18 0 0 1 16.18-16.18H857.17a16.18 16.18 0 0 1 16.18 16.18z" p-id="1703"></path><path d="M739.38 778.643H284.135c-56.899 0-54.526 67.685 0 67.685H739.38c60.458 0.054 52.153-67.685 0-67.685z m-457.025-72.486h189.303c57.762 0 49.834-67.631 0-67.631H282.355c-54.364-0.162-52.099 67.631 0 67.631zM658.373 489.025a177.6 177.6 0 0 0-5.77-210.715L533.95 384.827zM528.557 209.978v144.809l106.625-95.893a177.384 177.384 0 0 0-106.625-48.916z" p-id="1704"></path><path d="M512 565.933a177.546 177.546 0 0 0 129.924-56.522L502.508 392.27l0.917-1.133h-0.917v-181.16A177.978 177.978 0 0 0 512 565.934z" p-id="1705"></path></svg>