<?xml version="1.0" standalone="no"?><!DOCTYPE svg PUBLIC "-//W3C//DTD SVG 1.1//EN" "http://www.w3.org/Graphics/SVG/1.1/DTD/svg11.dtd"><svg t="1732177985654" class="icon" viewBox="0 0 1024 1024" version="1.1" xmlns="http://www.w3.org/2000/svg" p-id="2297" xmlns:xlink="http://www.w3.org/1999/xlink" width="200" height="200"><path d="M866.461538 0 157.538462 0C114.097231 0 78.769231 35.328 78.769231 78.769231l0 866.461538c0 43.441231 35.328 78.769231 78.769231 78.769231l708.923077 0c43.441231 0 78.769231-35.328 78.769231-78.769231L945.230769 78.769231C945.230769 35.328 909.902769 0 866.461538 0zM866.382769 945.230769 157.538462 945.230769 157.538462 78.769231l708.923077 0L866.382769 945.230769zM708.923077 433.230769l78.769231 0 0 78.769231-78.769231 0L708.923077 433.230769zM630.153846 512 236.307692 512l0-78.769231 393.846154 0L630.153846 512zM472.615385 669.538462 236.307692 669.538462l0-78.769231 236.307692 0L472.615385 669.538462zM551.384615 827.076923 236.307692 827.076923l0-78.769231 315.076923 0L551.384615 827.076923zM708.923077 590.769231l78.769231 0 0 78.769231-78.769231 0L708.923077 590.769231zM708.923077 748.307692l78.769231 0 0 78.769231-78.769231 0L708.923077 748.307692zM236.307692 275.692308 236.307692 236.307692c0-21.700923 17.683692-39.384615 39.384615-39.384615l471.906462 0c21.700923 0 39.384615 17.683692 39.384615 39.384615l0 39.384615c0 21.700923-17.683692 39.384615-39.384615 39.384615L275.692308 315.076923C253.991385 315.076923 236.307692 297.393231 236.307692 275.692308z" p-id="2298"></path></svg>