<?xml version="1.0" standalone="no"?><!DOCTYPE svg PUBLIC "-//W3C//DTD SVG 1.1//EN" "http://www.w3.org/Graphics/SVG/1.1/DTD/svg11.dtd"><svg t="1731490109482" class="icon" viewBox="0 0 1024 1024" version="1.1" xmlns="http://www.w3.org/2000/svg" p-id="1308" xmlns:xlink="http://www.w3.org/1999/xlink" width="200" height="200"><path fill="#fff" d="M298.24 386.346667h137.813333c23.466667 0 42.666667-19.2 42.666667-42.666667s-19.2-42.666667-42.666667-42.666667h-137.813333c-23.466667 0-42.666667 19.2-42.666667 42.666667s19.2 42.666667 42.666667 42.666667zM298.24 554.666667h137.813333c23.466667 0 42.666667-19.2 42.666667-42.666667s-19.2-42.666667-42.666667-42.666667h-137.813333c-23.466667 0-42.666667 19.2-42.666667 42.666667s19.2 42.666667 42.666667 42.666667zM725.76 637.653333H298.24c-23.466667 0-42.666667 19.2-42.666667 42.666667s19.2 42.666667 42.666667 42.666667h427.52c23.466667 0 42.666667-19.2 42.666667-42.666667s-19.2-42.666667-42.666667-42.666667z" p-id="1309"></path><path fill="#fff" d="M882.346667 288.64l-168.32-168.32A118.4 118.4 0 0 0 629.546667 85.333333H234.666667c-70.613333 0-128 57.386667-128 128v597.333334c0 70.613333 57.386667 128 128 128h554.666666c70.613333 0 128-57.386667 128-128V373.12c0-32-12.373333-61.866667-34.986666-84.48z m-60.373334 60.373333c3.84 3.84 6.4 8.533333 8.106667 13.653334H640V172.586667c5.12 1.706667 9.813333 4.266667 13.653333 8.106666l168.32 168.32zM789.333333 853.333333H234.666667c-23.466667 0-42.666667-19.2-42.666667-42.666666V213.333333c0-23.466667 19.2-42.666667 42.666667-42.666666h320v234.666666c0 23.466667 19.2 42.666667 42.666666 42.666667h234.666667v362.666667c0 23.466667-19.2 42.666667-42.666667 42.666666z" p-id="1310"></path></svg>