<?xml version="1.0" standalone="no"?><!DOCTYPE svg PUBLIC "-//W3C//DTD SVG 1.1//EN" "http://www.w3.org/Graphics/SVG/1.1/DTD/svg11.dtd"><svg t="1732177921274" class="icon" viewBox="0 0 1024 1024" version="1.1" xmlns="http://www.w3.org/2000/svg" p-id="1398" xmlns:xlink="http://www.w3.org/1999/xlink" width="200" height="200"><path d="M807.384615 1024h-590.76923a118.153846 118.153846 0 0 1-118.153847-118.153846V118.153846a118.153846 118.153846 0 0 1 118.153847-118.153846h590.76923a118.153846 118.153846 0 0 1 118.153847 118.153846v787.692308a118.153846 118.153846 0 0 1-118.153847 118.153846zM216.615385 78.769231a39.384615 39.384615 0 0 0-39.384616 39.384615v787.692308a39.384615 39.384615 0 0 0 39.384616 39.384615h590.76923a39.384615 39.384615 0 0 0 39.384616-39.384615V118.153846a39.384615 39.384615 0 0 0-39.384616-39.384615z" p-id="1399"></path><path d="M789.661538 161.083077l-170.92923 25.6 29.144615 36.627692-106.732308 84.676923-149.661538-80.344615-157.144615 94.916923L275.298462 389.907692l118.153846-71.68 155.963077 83.889231 147.298461-116.972308 29.538462 36.627693 63.40923-160.689231zM745.156923 674.264615H278.843077a39.384615 39.384615 0 0 1 0-78.76923h466.313846a39.384615 39.384615 0 0 1 0 78.76923zM578.56 851.495385H278.843077a39.384615 39.384615 0 0 1 0-78.769231h299.716923a39.384615 39.384615 0 1 1 0 78.769231z" p-id="1400"></path></svg>